<svg data-v-44b55c2e="" data-v-08e5a791="" id="copy-svg" class="" width="1000" height="637.7952755905512" x="0px" y="0px" viewBox="0 0 254 162" xmlns="http://www.w3.org/2000/svg" version="1.1" style="transform: translate(0,0)" preserveAspectRatio="none"><rect x="0" y="0" width="254" height="162" style="fill:rgba(0,0,0,0);"/><g transform="translate(20, 20)" style="fill:#000000;"><text style="font: 20px monospace" text-anchor="start" x="0" y="122">2</text></g><g transform="translate(44, 20)" style="fill:#000000;"><rect x="0" y="0" width="2" height="112"/><rect x="4" y="0" width="2" height="112"/><text style="font: 20px monospace" text-anchor="middle" x="3" y="134"></text></g><g transform="translate(50, 20)" style="fill:#000000;"><rect x="6" y="0" width="4" height="100"/><rect x="12" y="0" width="2" height="100"/><rect x="20" y="0" width="4" height="100"/><rect x="26" y="0" width="2" height="100"/><rect x="30" y="0" width="4" height="100"/><rect x="38" y="0" width="4" height="100"/><rect x="44" y="0" width="2" height="100"/><rect x="50" y="0" width="6" height="100"/><rect x="60" y="0" width="4" height="100"/><rect x="68" y="0" width="2" height="100"/><rect x="74" y="0" width="2" height="100"/><rect x="82" y="0" width="2" height="100"/><text style="font: 20px monospace" text-anchor="middle" x="42" y="122">001017</text></g><g transform="translate(134, 20)" style="fill:#000000;"><rect x="2" y="0" width="2" height="112"/><rect x="6" y="0" width="2" height="112"/><text style="font: 20px monospace" text-anchor="middle" x="5" y="134"></text></g><g transform="translate(144, 20)" style="fill:#000000;"><rect x="0" y="0" width="2" height="100"/><rect x="6" y="0" width="6" height="100"/><rect x="14" y="0" width="6" height="100"/><rect x="24" y="0" width="2" height="100"/><rect x="28" y="0" width="6" height="100"/><rect x="38" y="0" width="2" height="100"/><rect x="42" y="0" width="6" height="100"/><rect x="52" y="0" width="2" height="100"/><rect x="56" y="0" width="6" height="100"/><rect x="66" y="0" width="2" height="100"/><rect x="70" y="0" width="6" height="100"/><rect x="80" y="0" width="2" height="100"/><text style="font: 20px monospace" text-anchor="middle" x="42" y="122">500000</text></g><g transform="translate(228, 20)" style="fill:#000000;"><rect x="0" y="0" width="2" height="112"/><rect x="4" y="0" width="2" height="112"/><text style="font: 20px monospace" text-anchor="middle" x="3" y="134"></text></g></svg>